<svg width="19" height="19" viewBox="0 0 19 19" fill="none" xmlns="http://www.w3.org/2000/svg">
<path d="M14.2949 10.9091C14.0977 11.1003 14.007 11.3767 14.052 11.6479L14.7291 15.395C14.7862 15.7126 14.6521 16.034 14.3863 16.2176C14.1259 16.408 13.7793 16.4308 13.4952 16.2785L10.1221 14.5192C10.0048 14.4567 9.87455 14.4232 9.74127 14.4194H9.53487C9.46328 14.4301 9.39321 14.4529 9.32924 14.488L5.9553 16.2557C5.78851 16.3394 5.59963 16.3691 5.41456 16.3394C4.96369 16.2541 4.66285 15.8246 4.73673 15.3714L5.41456 11.6243C5.4595 11.3509 5.36887 11.0729 5.17161 10.8786L2.42143 8.21299C2.19143 7.98983 2.11146 7.65472 2.21656 7.35236C2.31862 7.05076 2.57909 6.83065 2.89363 6.78115L6.67883 6.23202C6.96672 6.20232 7.21958 6.02715 7.34905 5.7682L9.01698 2.34854C9.05658 2.27238 9.10761 2.20231 9.1693 2.1429L9.23784 2.08959C9.27364 2.04998 9.31477 2.01723 9.36046 1.99058L9.44348 1.96011L9.57295 1.9068H9.89359C10.18 1.9365 10.432 2.10787 10.5638 2.36377L12.2538 5.7682C12.3757 6.01725 12.6125 6.19013 12.886 6.23202L16.6712 6.78115C16.991 6.82685 17.2584 7.04771 17.3642 7.35236C17.464 7.65777 17.3779 7.99288 17.1434 8.21299L14.2949 10.9091Z" fill="#F6B76F"/>
</svg>
